<?xml version="1.0" encoding="UTF-8" standalone="no"?>
<!-- Created with Inkscape (http://www.inkscape.org/) -->

<svg
   width="380"
   height="48"
   viewBox="0 0 380 48"
   version="1.1"
   id="SVGRoot"
   sodipodi:docname="sign-air-2.svg"
   inkscape:version="1.2.2 (1:1.2.2+202305151914+b0a8486541)"
   xml:space="preserve"
   inkscape:export-filename="sign-flat-move-sharp-2X.png"
   inkscape:export-xdpi="192"
   inkscape:export-ydpi="192"
   xmlns:inkscape="http://www.inkscape.org/namespaces/inkscape"
   xmlns:sodipodi="http://sodipodi.sourceforge.net/DTD/sodipodi-0.dtd"
   xmlns="http://www.w3.org/2000/svg"
   xmlns:svg="http://www.w3.org/2000/svg"><sodipodi:namedview
     id="namedview137"
     pagecolor="#e5e5e5"
     bordercolor="#000000"
     borderopacity="0.25"
     inkscape:showpageshadow="2"
     inkscape:pageopacity="0"
     inkscape:pagecheckerboard="0"
     inkscape:deskcolor="#d1d1d1"
     inkscape:document-units="px"
     showgrid="false"
     inkscape:zoom="2.9950359"
     inkscape:cx="151.7511"
     inkscape:cy="24.039779"
     inkscape:current-layer="layer1"
     inkscape:lockguides="false"
     showguides="true" /><defs
     id="defs132"><filter
       style="color-interpolation-filters:sRGB"
       inkscape:label="Drop Shadow"
       id="filter4294"
       x="-0.012307694"
       y="-0.10909092"
       width="1.0246154"
       height="1.2181818"><feFlood
         flood-opacity="0.501961"
         flood-color="rgb(0,0,0)"
         result="flood"
         id="feFlood4284" /><feComposite
         in="flood"
         in2="SourceGraphic"
         operator="in"
         result="composite1"
         id="feComposite4286" /><feGaussianBlur
         in="composite1"
         stdDeviation="2"
         result="blur"
         id="feGaussianBlur4288" /><feOffset
         dx="0"
         dy="0"
         result="offset"
         id="feOffset4290" /><feComposite
         in="offset"
         in2="offset"
         operator="atop"
         result="composite2"
         id="feComposite4292" /></filter></defs><g
     inkscape:label="logo-bar"
     inkscape:groupmode="layer"
     id="layer1"
     style="display:inline"
     sodipodi:insensitive="true"><path
       id="wing"
       style="fill:#31c47b;stroke-width:0;fill-opacity:1"
       d="M 18,30 190,6 362,30 380,48 190,32 0,48 Z"
       sodipodi:nodetypes="ccccccc"
       inkscape:label="wing"
       sodipodi:insensitive="true" /><g
       id="badge"
       transform="matrix(0.125,0,0,0.125,174,3)"
       style="display:inline;stroke-width:8"
       sodipodi:insensitive="true"><circle
         style="display:inline;fill:#ffffff;fill-opacity:1;stroke-width:0"
         id="circle-outline"
         cx="189"
         cy="24"
         r="19"
         inkscape:label="circle-outline"
         transform="matrix(8,0,0,8,-1384,-64)" /><circle
         style="fill:#31c47b;fill-opacity:1;stroke:none;stroke-width:0;stroke-miterlimit:4;stroke-dasharray:none"
         id="background-circle"
         cx="128"
         cy="128"
         r="128" /><path
         style="color:#000000;fill:#ffffff;fill-opacity:1;stroke:none;stroke-width:0;stroke-dasharray:none"
         d="m 44,50 v 108 c 0,26.3675 21.63249,48 48,48 h 72 c 26.3675,0 48,-21.6325 48,-48 V 98 c 0,-19.7401 -16.2599,-36 -36,-36 -9.22176,0 -17.60017,3.64416 -24,9.43828 C 145.60017,65.64416 137.22176,62 128,62 108.2599,62 92,78.25991 92,98 v 60 h 24 V 98 c 0,-6.76954 5.23045,-12 12,-12 6.76955,0 12,5.23046 12,12 v 60 h 24 V 98 c 0,-6.76954 5.23045,-12 12,-12 6.76954,0 12,5.23046 12,12 v 60 c 0,13.39696 -10.60304,24 -24,24 H 92 C 78.60304,182 68,171.39696 68,158 V 50 Z"
         id="Lm-path" /></g></g><g
     inkscape:groupmode="layer"
     id="layer2"
     inkscape:label="text"
     style="display:inline"><text
       xml:space="preserve"
       style="font-weight:500;font-size:14px;font-family:Ubuntu;-inkscape-font-specification:'Ubuntu Medium';fill:#595959;stroke-width:0"
       x="350.11102"
       y="11.979267"
       id="name"
       transform="matrix(0.99647671,0.08385189,-0.08385164,0.99647976,0,0)"
       inkscape:label="name"><tspan
         sodipodi:role="line"
         id="tspan355"
         x="350.11102"
         y="11.979267"
         style="text-align:end;text-anchor:end;fill:#ffffff;fill-opacity:1;stroke-width:0">MyNameIs15Chars</tspan></text><text
       xml:space="preserve"
       style="font-weight:500;font-size:14px;font-family:Ubuntu;-inkscape-font-specification:'Ubuntu Medium';text-align:start;text-anchor:start;fill:#ffffff;fill-opacity:1;stroke-width:0"
       x="28.344191"
       y="43.843056"
       id="title"
       transform="rotate(-4.81)"
       inkscape:label="title"><tspan
         sodipodi:role="line"
         id="tspan1016"
         x="28.344191"
         y="43.843056">MyTitleIs</tspan></text></g></svg>
