<?xml version="1.0" encoding="UTF-8" standalone="no"?>
<!-- Created with Inkscape (http://www.inkscape.org/) -->

<svg
   width="360"
   height="48"
   viewBox="0 0 360 48"
   version="1.1"
   id="SVGRoot"
   sodipodi:docname="sign-2lines-halo.svg"
   inkscape:version="1.2.2 (1:1.2.2+202305151914+b0a8486541)"
   xml:space="preserve"
   inkscape:export-filename="sign-flat-move-sharp-2X.png"
   inkscape:export-xdpi="192"
   inkscape:export-ydpi="192"
   xmlns:inkscape="http://www.inkscape.org/namespaces/inkscape"
   xmlns:sodipodi="http://sodipodi.sourceforge.net/DTD/sodipodi-0.dtd"
   xmlns="http://www.w3.org/2000/svg"
   xmlns:svg="http://www.w3.org/2000/svg"><sodipodi:namedview
     id="namedview137"
     pagecolor="#e5e5e5"
     bordercolor="#000000"
     borderopacity="0.25"
     inkscape:showpageshadow="2"
     inkscape:pageopacity="0"
     inkscape:pagecheckerboard="0"
     inkscape:deskcolor="#d1d1d1"
     inkscape:document-units="px"
     showgrid="false"
     inkscape:zoom="3"
     inkscape:cx="159.83333"
     inkscape:cy="24"
     inkscape:current-layer="layer2"
     inkscape:lockguides="false"
     showguides="true" /><defs
     id="defs132"><filter
       style="color-interpolation-filters:sRGB"
       inkscape:label="Drop Shadow"
       id="filter4294"
       x="-0.012307694"
       y="-0.10909092"
       width="1.0246154"
       height="1.2181818"><feFlood
         flood-opacity="0.501961"
         flood-color="rgb(0,0,0)"
         result="flood"
         id="feFlood4284" /><feComposite
         in="flood"
         in2="SourceGraphic"
         operator="in"
         result="composite1"
         id="feComposite4286" /><feGaussianBlur
         in="composite1"
         stdDeviation="2"
         result="blur"
         id="feGaussianBlur4288" /><feOffset
         dx="0"
         dy="0"
         result="offset"
         id="feOffset4290" /><feComposite
         in="offset"
         in2="offset"
         operator="atop"
         result="composite2"
         id="feComposite4292" /></filter><filter
       inkscape:collect="always"
       style="color-interpolation-filters:sRGB"
       id="filter1705"
       x="-0.026245614"
       y="-0.2805"
       width="1.0524912"
       height="1.561"><feGaussianBlur
         inkscape:collect="always"
         stdDeviation="3.74"
         id="feGaussianBlur1707" /></filter></defs><g
     inkscape:label="logo-bar"
     inkscape:groupmode="layer"
     id="layer1"
     style="display:inline"
     sodipodi:insensitive="true"><path
       style="color:#000000;fill:#545454;fill-opacity:1;stroke:none;stroke-width:0;stroke-dasharray:none;filter:url(#filter1705)"
       d="m 180,8 c 5.75411,0 11.06009,3.085018 13.90625,8.085937 l 0.43164,0.757813 H 351 v 14.3125 H 194.33789 l -0.43164,0.757812 C 191.06009,36.914982 185.75411,40 180,40 174.24589,40 168.93991,36.914982 166.09375,31.914062 L 165.66211,31.15625 H 9.0000002 V 16.84375 H 165.66211 l 0.43164,-0.757813 C 168.93991,11.085018 174.24589,8 180,8 Z"
       id="line-shadow"
       inkscape:label="line-shadow" /><path
       style="color:#000000;fill:#ffffff;fill-opacity:1;stroke:none;stroke-width:0;stroke-dasharray:none"
       d="m 180,8 c 5.75411,0 11.06009,3.085018 13.90625,8.085937 l 0.43164,0.757813 H 351 v 14.3125 H 194.33789 l -0.43164,0.757812 C 191.06009,36.914982 185.75411,40 180,40 174.24589,40 168.93991,36.914982 166.09375,31.914062 L 165.66211,31.15625 H 9.0000002 V 16.84375 H 165.66211 l 0.43164,-0.757813 C 168.93991,11.085018 174.24589,8 180,8 Z"
       id="line-fill"
       inkscape:label="line-fill" /><path
       style="color:#000000;fill:#26c08c;fill-opacity:1;stroke:none;stroke-width:0;stroke-dasharray:none"
       d="m 169.5,14.25 v 13.5 c 0,3.295937 2.70406,6 6,6 h 9 c 3.29594,0 6,-2.704063 6,-6 v -7.5 c 0,-2.467512 -2.03249,-4.5 -4.5,-4.5 -1.15272,0 -2.20002,0.45552 -3,1.179785 C 182.20002,16.20552 181.15272,15.75 180,15.75 c -2.46751,0 -4.5,2.032489 -4.5,4.5 v 7.5 h 3 v -7.5 c 0,-0.846193 0.65381,-1.5 1.5,-1.5 0.84619,0 1.5,0.653807 1.5,1.5 v 7.5 h 3 v -7.5 c 0,-0.846193 0.65381,-1.5 1.5,-1.5 0.84619,0 1.5,0.653807 1.5,1.5 v 7.5 c 0,1.67462 -1.32538,3 -3,3 h -9 c -1.67462,0 -3,-1.32538 -3,-3 v -13.5 z"
       id="Lm-path" /></g><g
     inkscape:groupmode="layer"
     id="layer2"
     inkscape:label="text"
     style="display:inline"><text
       xml:space="preserve"
       style="font-weight:500;font-size:12px;font-family:Ubuntu;-inkscape-font-specification:'Ubuntu Medium';opacity:1;fill:#808080;fill-opacity:1;stroke-width:0;stroke-dasharray:none;stroke-opacity:0.25"
       x="348.21573"
       y="27.528"
       id="function"
       inkscape:label="function"><tspan
         sodipodi:role="line"
         id="tspan4818"
         x="348.21573"
         y="27.528"
         style="font-style:normal;font-variant:normal;font-weight:normal;font-stretch:normal;font-size:12px;font-family:Ubuntu;-inkscape-font-specification:Ubuntu;text-align:end;text-anchor:end;fill:#26c08c;fill-opacity:1;stroke-width:0;stroke-dasharray:none">MyTitleIs @linuxmint</tspan></text><text
       xml:space="preserve"
       style="font-style:italic;font-size:12px;font-family:Ubuntu;-inkscape-font-specification:'Ubuntu Italic';fill:none;stroke:#26c08c;stroke-width:0;stroke-dasharray:none"
       x="11.196"
       y="27.528"
       id="text405"
       inkscape:label="name"><tspan
         sodipodi:role="line"
         id="tspan403"
         x="11.196"
         y="27.528"
         style="font-style:normal;font-variant:normal;font-weight:normal;font-stretch:normal;font-size:12px;font-family:Ubuntu;-inkscape-font-specification:Ubuntu;fill:#26c08c;fill-opacity:1;stroke:none">MyNameIs15Chars</tspan></text></g></svg>
