<?xml version="1.0" encoding="UTF-8" standalone="no"?>
<!-- Created with Inkscape (http://www.inkscape.org/) -->

<svg
   width="400"
   height="54"
   viewBox="0 0 400 54"
   version="1.1"
   id="SVGRoot"
   sodipodi:docname="signature-gradient-v2.svg"
   inkscape:version="1.2.2 (1:1.2.2+202212051552+b0a8486541)"
   xml:space="preserve"
   inkscape:export-filename="signature-gradient-v2.png"
   inkscape:export-xdpi="96"
   inkscape:export-ydpi="96"
   xmlns:inkscape="http://www.inkscape.org/namespaces/inkscape"
   xmlns:sodipodi="http://sodipodi.sourceforge.net/DTD/sodipodi-0.dtd"
   xmlns:xlink="http://www.w3.org/1999/xlink"
   xmlns="http://www.w3.org/2000/svg"
   xmlns:svg="http://www.w3.org/2000/svg"><sodipodi:namedview
     id="namedview137"
     pagecolor="#d1d1d1"
     bordercolor="#000000"
     borderopacity="0.25"
     inkscape:showpageshadow="2"
     inkscape:pageopacity="0"
     inkscape:pagecheckerboard="0"
     inkscape:deskcolor="#d1d1d1"
     inkscape:document-units="px"
     showgrid="false"
     inkscape:zoom="3"
     inkscape:cx="189"
     inkscape:cy="27"
     inkscape:current-layer="layer1"
     inkscape:lockguides="true"
     showguides="true"><sodipodi:guide
       position="84.160004,22.863001"
       orientation="0,-1"
       id="guide7096"
       inkscape:locked="true" /><sodipodi:guide
       position="85.000004,33.727001"
       orientation="1,0"
       id="guide7098"
       inkscape:locked="true" /><sodipodi:guide
       position="383,54"
       orientation="54,0"
       id="guide7158"
       inkscape:locked="true" /></sodipodi:namedview><defs
     id="defs132"><linearGradient
       inkscape:collect="always"
       id="linearGradient2446"><stop
         style="stop-color:#0ac386;stop-opacity:1;"
         offset="0.0990276"
         id="stop2442" /><stop
         style="stop-color:#9cd52a;stop-opacity:1;"
         offset="1"
         id="stop2444" /></linearGradient><linearGradient
       inkscape:collect="always"
       xlink:href="#linearGradient2446"
       id="linearGradient2448"
       x1="25"
       y1="25"
       x2="375"
       y2="25"
       gradientUnits="userSpaceOnUse" /><filter
       inkscape:collect="always"
       style="color-interpolation-filters:sRGB"
       id="filter7220"
       x="-0.01758718"
       y="-0.15588638"
       width="1.0351744"
       height="1.3117728"><feGaussianBlur
         inkscape:collect="always"
         stdDeviation="2.44125"
         id="feGaussianBlur7222" /></filter></defs><g
     inkscape:label="logo+background"
     inkscape:groupmode="layer"
     id="layer1"
     sodipodi:insensitive="true"><path
       id="shadow"
       style="fill:#808080;fill-opacity:1;stroke:#808080;stroke-width:2;stroke-dasharray:none;stroke-opacity:1;filter:url(#filter7220)"
       inkscape:label="#shadow"
       d="M 51,5 A 21.999998,21.999998 0 0 0 32.003906,16 H 5 V 38 H 32.003906 A 21.999998,21.999998 0 0 0 51,49 21.999998,21.999998 0 0 0 69.996094,38 H 395 V 16 H 70.044922 A 21.999998,21.999998 0 0 0 51,5 Z" /><rect
       style="fill:url(#linearGradient2448);fill-opacity:1;stroke-width:0.999992;stroke-opacity:0.25"
       id="background-bar"
       width="390"
       height="22"
       x="5.0000005"
       y="16"
       inkscape:label="#background-bar" /><g
       id="logo_halo"
       inkscape:label="#logo+halo"
       sodipodi:insensitive="true"><circle
         style="fill:#ffffff;stroke:none;stroke-width:0;stroke-dasharray:none;stroke-opacity:0.5"
         id="halo"
         cx="51"
         cy="27"
         r="21.999998"
         inkscape:label="#halo" /><g
         id="logo"
         transform="rotate(-15,63.095749,60.1809)"><circle
           style="fill:#9cd52a;fill-opacity:1;stroke:none;stroke-width:0;stroke-miterlimit:4;stroke-dasharray:none"
           id="background-circle"
           cx="60"
           cy="25"
           r="20" /><path
           style="color:#000000;fill:#ffffff;fill-opacity:1;stroke:none;stroke-width:0;stroke-dasharray:none"
           d="m 46.875,12.8125 v 16.875 c 0,4.119922 3.380077,7.5 7.5,7.5 h 11.25 c 4.119922,0 7.5,-3.380078 7.5,-7.5 v -9.375 c 0,-3.084391 -2.540609,-5.625 -5.625,-5.625 -1.4409,0 -2.750027,0.5694 -3.75,1.474731 C 62.750027,15.2569 61.4409,14.6875 60,14.6875 c -3.084391,0 -5.625,2.540611 -5.625,5.625 v 9.375 h 3.75 v -9.375 c 0,-1.057741 0.817258,-1.875 1.875,-1.875 1.057742,0 1.875,0.817259 1.875,1.875 v 9.375 h 3.75 v -9.375 c 0,-1.057741 0.817258,-1.875 1.875,-1.875 1.057741,0 1.875,0.817259 1.875,1.875 v 9.375 c 0,2.093275 -1.656725,3.75 -3.75,3.75 h -11.25 c -2.093275,0 -3.75,-1.656725 -3.75,-3.75 v -16.875 z"
           id="Lm-path" /></g></g></g><g
     inkscape:groupmode="layer"
     id="layer2"
     inkscape:label="name"><text
       xml:space="preserve"
       style="font-weight:500;font-size:14px;font-family:Ubuntu;-inkscape-font-specification:'Ubuntu Medium';opacity:1;fill:#808080;fill-opacity:1;stroke-opacity:0.25"
       x="84.160004"
       y="31.136999"
       id="name"
       inkscape:label="#name"><tspan
         sodipodi:role="line"
         id="tspan4818"
         x="84.160004"
         y="31.136999"
         style="font-style:normal;font-variant:normal;font-weight:bold;font-stretch:normal;font-family:Ubuntu;-inkscape-font-specification:'Ubuntu Bold';fill:#ffffff;fill-opacity:1">MyNameIs15Chars</tspan></text><text
       xml:space="preserve"
       style="font-style:normal;font-variant:normal;font-weight:bold;font-stretch:normal;font-size:14px;font-family:Ubuntu;-inkscape-font-specification:'Ubuntu Bold';opacity:1;fill:#ffffff;fill-opacity:1;stroke-opacity:0.25"
       x="383"
       y="31.094999"
       id="function"
       inkscape:label="#function"><tspan
         sodipodi:role="line"
         id="tspan4974"
         x="383"
         y="31.094999"
         style="font-style:normal;font-variant:normal;font-weight:normal;font-stretch:normal;font-family:Ubuntu;-inkscape-font-specification:Ubuntu;text-align:end;text-anchor:end">Moderator@LinuxMint</tspan></text></g></svg>
