<?xml version="1.0" encoding="UTF-8" standalone="no"?>
<!-- Created with Inkscape (http://www.inkscape.org/) -->

<svg
   width="360"
   height="40"
   viewBox="0 0 360 40"
   version="1.1"
   id="SVGRoot"
   sodipodi:docname="sign-neg-light-1.svg"
   inkscape:version="1.2.2 (1:1.2.2+202305151914+b0a8486541)"
   xml:space="preserve"
   inkscape:export-filename="sign-flat-move-sharp-2X.png"
   inkscape:export-xdpi="192"
   inkscape:export-ydpi="192"
   xmlns:inkscape="http://www.inkscape.org/namespaces/inkscape"
   xmlns:sodipodi="http://sodipodi.sourceforge.net/DTD/sodipodi-0.dtd"
   xmlns="http://www.w3.org/2000/svg"
   xmlns:svg="http://www.w3.org/2000/svg"><sodipodi:namedview
     id="namedview137"
     pagecolor="#f2f2f2"
     bordercolor="#000000"
     borderopacity="0.25"
     inkscape:showpageshadow="2"
     inkscape:pageopacity="0"
     inkscape:pagecheckerboard="0"
     inkscape:deskcolor="#d1d1d1"
     inkscape:document-units="px"
     showgrid="false"
     inkscape:zoom="3"
     inkscape:cx="178.83333"
     inkscape:cy="18"
     inkscape:current-layer="layer2"
     inkscape:lockguides="false"
     showguides="true" /><defs
     id="defs132"><filter
       style="color-interpolation-filters:sRGB"
       inkscape:label="Drop Shadow"
       id="filter4294"
       x="-0.012307694"
       y="-0.10909092"
       width="1.0246154"
       height="1.2181818"><feFlood
         flood-opacity="0.501961"
         flood-color="rgb(0,0,0)"
         result="flood"
         id="feFlood4284" /><feComposite
         in="flood"
         in2="SourceGraphic"
         operator="in"
         result="composite1"
         id="feComposite4286" /><feGaussianBlur
         in="composite1"
         stdDeviation="2"
         result="blur"
         id="feGaussianBlur4288" /><feOffset
         dx="0"
         dy="0"
         result="offset"
         id="feOffset4290" /><feComposite
         in="offset"
         in2="offset"
         operator="atop"
         result="composite2"
         id="feComposite4292" /></filter></defs><g
     inkscape:label="logo-bar"
     inkscape:groupmode="layer"
     id="layer1"
     style="display:inline"><path
       id="line"
       style="display:inline;fill:none;fill-opacity:1;stroke:#26c08c;stroke-width:4;stroke-dasharray:none;stroke-opacity:1"
       d="M 360,26 H 198.28846 C 195.0849,33.237398 187.91471,37.904807 180,37.904808 172.08529,37.904807 164.9151,33.237398 161.71154,26 H 0"
       sodipodi:nodetypes="ccscc"
       inkscape:label="line" /><g
       id="badge"
       transform="matrix(0.125,0,0,0.125,164,2)"
       style="display:inline;stroke-width:8"><circle
         style="fill:#9cd52a;fill-opacity:1;stroke:none;stroke-width:0;stroke-miterlimit:4;stroke-dasharray:none"
         id="background-circle"
         cx="128"
         cy="128"
         r="128" /><path
         style="color:#000000;fill:#ffffff;fill-opacity:1;stroke:none;stroke-width:0;stroke-dasharray:none"
         d="m 44,50 v 108 c 0,26.3675 21.63249,48 48,48 h 72 c 26.3675,0 48,-21.6325 48,-48 V 98 c 0,-19.7401 -16.2599,-36 -36,-36 -9.22176,0 -17.60017,3.64416 -24,9.43828 C 145.60017,65.64416 137.22176,62 128,62 108.2599,62 92,78.25991 92,98 v 60 h 24 V 98 c 0,-6.76954 5.23045,-12 12,-12 6.76955,0 12,5.23046 12,12 v 60 h 24 V 98 c 0,-6.76954 5.23045,-12 12,-12 6.76954,0 12,5.23046 12,12 v 60 c 0,13.39696 -10.60304,24 -24,24 H 92 C 78.60304,182 68,171.39696 68,158 V 50 Z"
         id="Lm-path" /></g></g><g
     inkscape:groupmode="layer"
     id="layer2"
     inkscape:label="text"
     style="display:inline"><text
       xml:space="preserve"
       style="font-weight:500;font-size:14px;font-family:Ubuntu;-inkscape-font-specification:'Ubuntu Medium';opacity:1;fill:#808080;fill-opacity:1;stroke-opacity:0.25"
       x="358.10376"
       y="22.115999"
       id="name"
       inkscape:label="name"><tspan
         sodipodi:role="line"
         id="tspan4818"
         x="358.10376"
         y="22.115999"
         style="font-style:italic;font-variant:normal;font-weight:normal;font-stretch:normal;font-family:Ubuntu;-inkscape-font-specification:'Ubuntu Italic';text-align:end;text-anchor:end;fill:#444444;fill-opacity:1">MyNameIs15Chars</tspan></text><text
       xml:space="preserve"
       style="font-size:14px;font-family:'Exo 2';-inkscape-font-specification:'Exo 2, ';text-align:start;text-anchor:start;fill:#cffced;stroke-width:0"
       x="0.104"
       y="22.115999"
       id="function"
       inkscape:label="function"><tspan
         sodipodi:role="line"
         id="tspan427"
         x="0.104"
         y="22.115999"
         style="font-style:italic;font-variant:normal;font-weight:normal;font-stretch:normal;font-family:Ubuntu;-inkscape-font-specification:'Ubuntu Italic';fill:#444444;fill-opacity:1">MyTitleIs @linuxmint</tspan></text></g></svg>
