<?xml version="1.0" encoding="UTF-8" standalone="no"?>
<!-- Created with Inkscape (http://www.inkscape.org/) -->

<svg
   width="400"
   height="36"
   viewBox="0 0 400 36"
   version="1.1"
   id="SVGRoot"
   sodipodi:docname="sign-neg-light-1.svg"
   inkscape:version="1.2.2 (1:1.2.2+202305151914+b0a8486541)"
   xml:space="preserve"
   inkscape:export-filename="sign-flat-move-sharp-2X.png"
   inkscape:export-xdpi="192"
   inkscape:export-ydpi="192"
   xmlns:inkscape="http://www.inkscape.org/namespaces/inkscape"
   xmlns:sodipodi="http://sodipodi.sourceforge.net/DTD/sodipodi-0.dtd"
   xmlns="http://www.w3.org/2000/svg"
   xmlns:svg="http://www.w3.org/2000/svg"><sodipodi:namedview
     id="namedview137"
     pagecolor="#ffffff"
     bordercolor="#000000"
     borderopacity="0.25"
     inkscape:showpageshadow="2"
     inkscape:pageopacity="0"
     inkscape:pagecheckerboard="0"
     inkscape:deskcolor="#d1d1d1"
     inkscape:document-units="px"
     showgrid="false"
     inkscape:zoom="3.1275"
     inkscape:cx="200"
     inkscape:cy="17.905675"
     inkscape:current-layer="layer2"
     inkscape:lockguides="false"
     showguides="true" /><defs
     id="defs132"><filter
       style="color-interpolation-filters:sRGB"
       inkscape:label="Drop Shadow"
       id="filter4294"
       x="-0.012307694"
       y="-0.10909092"
       width="1.0246154"
       height="1.2181818"><feFlood
         flood-opacity="0.501961"
         flood-color="rgb(0,0,0)"
         result="flood"
         id="feFlood4284" /><feComposite
         in="flood"
         in2="SourceGraphic"
         operator="in"
         result="composite1"
         id="feComposite4286" /><feGaussianBlur
         in="composite1"
         stdDeviation="2"
         result="blur"
         id="feGaussianBlur4288" /><feOffset
         dx="0"
         dy="0"
         result="offset"
         id="feOffset4290" /><feComposite
         in="offset"
         in2="offset"
         operator="atop"
         result="composite2"
         id="feComposite4292" /></filter></defs><g
     inkscape:label="logo-bar"
     inkscape:groupmode="layer"
     id="layer1"
     style="display:inline"><path
       style="fill:#cffced;fill-opacity:1;stroke:none;stroke-width:0;stroke-dasharray:none;stroke-opacity:1"
       d="M 400,10 H 0 v 15.000001 l 185.07364,10e-7 c 2.9783,5.463618 8.70371,8.863428 14.92636,8.863428 6.22265,0 11.94806,-3.39981 14.92636,-8.863428 L 400,25 Z"
       id="path2498"
       sodipodi:nodetypes="ccccsccc" /><circle
       style="display:inline;fill:#ffffff;stroke:none;stroke-width:0;stroke-miterlimit:4;stroke-dasharray:none"
       id="background-circle"
       cx="200"
       cy="17"
       r="16" /><path
       style="color:#000000;display:inline;fill:#26c08c;fill-opacity:1;stroke:none;stroke-width:0;stroke-dasharray:none"
       d="m 189.5,7.25 v 13.5 c 0,3.295937 2.70406,6 6,6 h 9 c 3.29594,0 6,-2.704063 6,-6 v -7.5 c 0,-2.467512 -2.03249,-4.5 -4.5,-4.5 -1.15272,0 -2.20002,0.45552 -3,1.179785 C 202.20002,9.20552 201.15272,8.75 200,8.75 c -2.46751,0 -4.5,2.032488 -4.5,4.5 v 7.5 h 3 v -7.5 c 0,-0.846194 0.65381,-1.5 1.5,-1.5 0.84619,0 1.5,0.653806 1.5,1.5 v 7.5 h 3 v -7.5 c 0,-0.846194 0.65381,-1.5 1.5,-1.5 0.84619,0 1.5,0.653807 1.5,1.5 v 7.5 c 0,1.67462 -1.32538,3 -3,3 h -9 c -1.67462,0 -3,-1.32538 -3,-3 V 7.25 Z"
       id="Lm-path" /><path
       id="path1164"
       style="display:inline;fill:none;fill-opacity:1;stroke:#26c08c;stroke-width:2;stroke-dasharray:none;stroke-opacity:1"
       d="m 0,25.000001 185.07364,10e-7 c 2.9783,5.463618 8.70371,8.863428 14.92636,8.863428 6.22265,0 11.94806,-3.39981 14.92636,-8.863428 L 400,25"
       sodipodi:nodetypes="ccscc" /></g><g
     inkscape:groupmode="layer"
     id="layer2"
     inkscape:label="text"
     style="display:inline"><text
       xml:space="preserve"
       style="font-weight:500;font-size:14px;font-family:Ubuntu;-inkscape-font-specification:'Ubuntu Medium';opacity:1;fill:#808080;fill-opacity:1;stroke-opacity:0.25"
       x="388.57382"
       y="21.389"
       id="name"
       inkscape:label="name"><tspan
         sodipodi:role="line"
         id="tspan4818"
         x="388.57382"
         y="21.389"
         style="font-style:normal;font-variant:normal;font-weight:bold;font-stretch:normal;font-family:Ubuntu;-inkscape-font-specification:'Ubuntu Bold';text-align:end;text-anchor:end;fill:#444444;fill-opacity:1">MyNameIs15Chars</tspan></text><text
       xml:space="preserve"
       style="font-size:14px;font-family:'Exo 2';-inkscape-font-specification:'Exo 2, ';text-align:start;text-anchor:start;fill:#cffced;stroke-width:0"
       x="11.062"
       y="21.368"
       id="text429"><tspan
         sodipodi:role="line"
         id="tspan427"
         x="11.062"
         y="21.368"
         style="font-style:normal;font-variant:normal;font-weight:normal;font-stretch:normal;font-family:Ubuntu;-inkscape-font-specification:Ubuntu;fill:#444444;fill-opacity:1">MyTitleIs @linuxmint</tspan></text></g></svg>
