<?xml version="1.0" encoding="UTF-8" standalone="no"?>
<!-- Created with Inkscape (http://www.inkscape.org/) -->

<svg
   width="378"
   height="50"
   viewBox="0 0 378 50"
   version="1.1"
   id="SVGRoot"
   sodipodi:docname="sign-2lines-10.svg"
   inkscape:version="1.2.2 (1:1.2.2+202305151914+b0a8486541)"
   xml:space="preserve"
   inkscape:export-filename="sign-2lines-10-2X.png"
   inkscape:export-xdpi="192"
   inkscape:export-ydpi="192"
   xmlns:inkscape="http://www.inkscape.org/namespaces/inkscape"
   xmlns:sodipodi="http://sodipodi.sourceforge.net/DTD/sodipodi-0.dtd"
   xmlns="http://www.w3.org/2000/svg"
   xmlns:svg="http://www.w3.org/2000/svg"><sodipodi:namedview
     id="namedview137"
     pagecolor="#ffffff"
     bordercolor="#000000"
     borderopacity="0.25"
     inkscape:showpageshadow="2"
     inkscape:pageopacity="0"
     inkscape:pagecheckerboard="0"
     inkscape:deskcolor="#d1d1d1"
     inkscape:document-units="px"
     showgrid="false"
     inkscape:zoom="1"
     inkscape:cx="157"
     inkscape:cy="24"
     inkscape:current-layer="layer3"
     inkscape:lockguides="true"
     showguides="true"><sodipodi:guide
       position="9,48"
       orientation="48,0"
       id="guide3637"
       inkscape:locked="true" /><sodipodi:guide
       position="369,48"
       orientation="48,0"
       id="guide3641"
       inkscape:locked="true" /></sodipodi:namedview><defs
     id="defs132"><filter
       style="color-interpolation-filters:sRGB"
       inkscape:label="Drop Shadow"
       id="filter4294"
       x="-0.012307694"
       y="-0.10909092"
       width="1.0246154"
       height="1.2181818"><feFlood
         flood-opacity="0.501961"
         flood-color="rgb(0,0,0)"
         result="flood"
         id="feFlood4284" /><feComposite
         in="flood"
         in2="SourceGraphic"
         operator="in"
         result="composite1"
         id="feComposite4286" /><feGaussianBlur
         in="composite1"
         stdDeviation="2"
         result="blur"
         id="feGaussianBlur4288" /><feOffset
         dx="0"
         dy="0"
         result="offset"
         id="feOffset4290" /><feComposite
         in="offset"
         in2="offset"
         operator="atop"
         result="composite2"
         id="feComposite4292" /></filter><filter
       inkscape:collect="always"
       style="color-interpolation-filters:sRGB"
       id="filter4641"
       x="-0.021492"
       y="-0.20360842"
       width="1.042984"
       height="1.4072168"><feGaussianBlur
         inkscape:collect="always"
         stdDeviation="3.2238"
         id="feGaussianBlur4643" /></filter></defs><g
     inkscape:groupmode="layer"
     id="layer3"
     inkscape:label="outline"><path
       id="outline-path"
       style="display:inline;fill:#545454;fill-opacity:1;stroke:none;stroke-width:0;stroke-dasharray:none;stroke-opacity:1;filter:url(#filter4641)"
       inkscape:label="outline-path"
       d="M 189,6.0000005 A 19,19 0 0 0 174.31055,13 H 9 V 37 H 174.31055 A 19,19 0 0 0 189,44 19,19 0 0 0 203.68945,37 H 369 V 13 H 203.72852 A 19,19 0 0 0 189,6.0000005 Z" /></g><g
     inkscape:label="logo-bar"
     inkscape:groupmode="layer"
     id="layer1"
     style="display:inline"><rect
       style="fill:#202020;fill-opacity:1;stroke:none;stroke-width:0;stroke-dasharray:none;stroke-opacity:1"
       id="bar"
       width="360"
       height="24"
       x="9"
       y="13"
       inkscape:label="bar" /><path
       style="fill:none;fill-opacity:1;stroke:#ffffff;stroke-width:3;stroke-dasharray:none;stroke-opacity:1"
       d="M 9,35.5 H 369"
       id="bottom-line"
       sodipodi:nodetypes="cc"
       inkscape:label="bottom-line" /><path
       style="fill:none;fill-opacity:1;stroke:#ffffff;stroke-width:3;stroke-dasharray:none;stroke-opacity:1"
       d="M 9,14.5 H 369"
       id="top-line"
       sodipodi:nodetypes="cc"
       inkscape:label="top-line" /><g
       id="badge"
       transform="matrix(0.125,0,0,0.125,173,9.0000005)"
       style="display:inline;stroke-width:8"><circle
         style="display:inline;fill:#ffffff;fill-opacity:1;stroke:none;stroke-width:0"
         id="outline-circle"
         cx="189"
         cy="24"
         r="19"
         inkscape:label="outline-circle"
         transform="matrix(8,0,0,8,-1384,-64)" /><circle
         style="fill:#26c08c;fill-opacity:1;stroke:none;stroke-width:0;stroke-miterlimit:4;stroke-dasharray:none"
         id="background-circle"
         cx="128"
         cy="128"
         r="128" /><path
         style="color:#000000;fill:#ffffff;fill-opacity:1;stroke:none;stroke-width:0;stroke-dasharray:none"
         d="m 44,50 v 108 c 0,26.3675 21.63249,48 48,48 h 72 c 26.3675,0 48,-21.6325 48,-48 V 98 c 0,-19.7401 -16.2599,-36 -36,-36 -9.22176,0 -17.60017,3.64416 -24,9.43828 C 145.60017,65.64416 137.22176,62 128,62 108.2599,62 92,78.25991 92,98 v 60 h 24 V 98 c 0,-6.76954 5.23045,-12 12,-12 6.76955,0 12,5.23046 12,12 v 60 h 24 V 98 c 0,-6.76954 5.23045,-12 12,-12 6.76954,0 12,5.23046 12,12 v 60 c 0,13.39696 -10.60304,24 -24,24 H 92 C 78.60304,182 68,171.39696 68,158 V 50 Z"
         id="Lm-path" /></g></g><g
     inkscape:groupmode="layer"
     id="layer2"
     inkscape:label="text"
     style="display:inline"
     sodipodi:insensitive="true"><text
       xml:space="preserve"
       style="font-weight:500;font-size:14px;font-family:Ubuntu;-inkscape-font-specification:'Ubuntu Medium';fill:#808080;fill-opacity:1;stroke-opacity:0.25"
       x="357.50381"
       y="29.864"
       id="name"
       inkscape:label="name"><tspan
         sodipodi:role="line"
         id="tspan4818"
         x="357.50381"
         y="29.864"
         style="font-style:normal;font-variant:normal;font-weight:500;font-stretch:normal;font-size:14px;font-family:Ubuntu;-inkscape-font-specification:'Ubuntu Medium';text-align:end;text-anchor:end;fill:#ffffff;fill-opacity:1">MyNameIs15Chars</tspan></text><text
       xml:space="preserve"
       style="font-style:italic;font-size:14px;font-family:Ubuntu;-inkscape-font-specification:'Ubuntu Italic';fill:none;stroke:#26c08c;stroke-width:0;stroke-dasharray:none"
       x="19.837999"
       y="29.864"
       id="title"
       inkscape:label="title"><tspan
         sodipodi:role="line"
         id="tspan403"
         x="19.837999"
         y="29.864"
         style="font-style:normal;font-variant:normal;font-weight:500;font-stretch:normal;font-size:14px;font-family:Ubuntu;-inkscape-font-specification:'Ubuntu Medium';fill:#ffffff;fill-opacity:1;stroke:none">MyTitleIs</tspan></text></g></svg>
