<?xml version="1.0" encoding="UTF-8" standalone="no"?>
<!-- Created with Inkscape (http://www.inkscape.org/) -->

<svg
   width="378"
   height="48"
   viewBox="0 0 378 48"
   version="1.1"
   id="SVGRoot"
   sodipodi:docname="sign-2lines-0.svg"
   inkscape:version="1.2.2 (1:1.2.2+202305151914+b0a8486541)"
   xml:space="preserve"
   inkscape:export-filename="sign-flat-move-sharp-2X.png"
   inkscape:export-xdpi="192"
   inkscape:export-ydpi="192"
   xmlns:inkscape="http://www.inkscape.org/namespaces/inkscape"
   xmlns:sodipodi="http://sodipodi.sourceforge.net/DTD/sodipodi-0.dtd"
   xmlns="http://www.w3.org/2000/svg"
   xmlns:svg="http://www.w3.org/2000/svg"><sodipodi:namedview
     id="namedview137"
     pagecolor="#e5e5e5"
     bordercolor="#000000"
     borderopacity="0.25"
     inkscape:showpageshadow="2"
     inkscape:pageopacity="0"
     inkscape:pagecheckerboard="0"
     inkscape:deskcolor="#d1d1d1"
     inkscape:document-units="px"
     showgrid="false"
     inkscape:zoom="3.3650794"
     inkscape:cx="181.42217"
     inkscape:cy="24.070755"
     inkscape:current-layer="layer11"
     inkscape:lockguides="false"
     showguides="true" /><defs
     id="defs132"><filter
       style="color-interpolation-filters:sRGB"
       inkscape:label="Drop Shadow"
       id="filter4294"
       x="-0.012307694"
       y="-0.10909092"
       width="1.0246154"
       height="1.2181818"><feFlood
         flood-opacity="0.501961"
         flood-color="rgb(0,0,0)"
         result="flood"
         id="feFlood4284" /><feComposite
         in="flood"
         in2="SourceGraphic"
         operator="in"
         result="composite1"
         id="feComposite4286" /><feGaussianBlur
         in="composite1"
         stdDeviation="2"
         result="blur"
         id="feGaussianBlur4288" /><feOffset
         dx="0"
         dy="0"
         result="offset"
         id="feOffset4290" /><feComposite
         in="offset"
         in2="offset"
         operator="atop"
         result="composite2"
         id="feComposite4292" /></filter></defs><g
     inkscape:groupmode="layer"
     id="layer11"
     inkscape:label="outline"><path
       id="outline"
       style="display:inline;fill:#ffffff;stroke:none;stroke-width:0"
       inkscape:label="outline"
       d="m 189,2 a 22,22 0 0 0 -17.5625,8.84375 H 0 v 26.3125 H 171.4375 A 22,22 0 0 0 189,46 22,22 0 0 0 206.5625,37.15625 H 378 V 10.84375 H 206.63086 A 22,22 0 0 0 189,2 Z" /></g><g
     inkscape:label="logo-bar"
     inkscape:groupmode="layer"
     id="layer1"
     style="display:inline"
     sodipodi:insensitive="true"><path
       style="color:#000000;fill:#6abf40;fill-opacity:1;stroke:none;stroke-width:0;stroke-dasharray:none"
       d="m 178.5,14.25 v 13.5 c 0,3.295937 2.70406,6 6,6 h 9 c 3.29594,0 6,-2.704063 6,-6 v -7.5 c 0,-2.467512 -2.03249,-4.5 -4.5,-4.5 -1.15272,0 -2.20002,0.45552 -3,1.179785 C 191.20002,16.20552 190.15272,15.75 189,15.75 c -2.46751,0 -4.5,2.032489 -4.5,4.5 v 7.5 h 3 v -7.5 c 0,-0.846193 0.65381,-1.5 1.5,-1.5 0.84619,0 1.5,0.653807 1.5,1.5 v 7.5 h 3 v -7.5 c 0,-0.846193 0.65381,-1.5 1.5,-1.5 0.84619,0 1.5,0.653807 1.5,1.5 v 7.5 c 0,1.67462 -1.32538,3 -3,3 h -9 c -1.67462,0 -3,-1.32538 -3,-3 v -13.5 z"
       id="Lm-path" /><path
       id="path-bottom"
       style="fill:none;stroke:#6abf40;stroke-width:3;stroke-opacity:1"
       d="M 378,32.656032 H 204.20931 C 201.09766,38.12344 195.29086,41.5 189,41.5 c -6.29086,0 -12.09766,-3.376559 -15.20931,-8.843967 H 0"
       sodipodi:nodetypes="ccscc"
       inkscape:label="path-bottom" /><path
       id="path-top"
       style="fill:none;stroke:#6abf40;stroke-width:3;stroke-opacity:1"
       d="M 378,15.343968 H 204.20931 C 201.09766,9.87656 195.29086,6.5 189,6.5 c -6.29086,0 -12.09766,3.376559 -15.20931,8.843967 H 0"
       sodipodi:nodetypes="ccscc"
       inkscape:label="path-top" /></g><g
     inkscape:groupmode="layer"
     id="layer2"
     inkscape:label="text"
     style="display:inline"
     sodipodi:insensitive="true"><g
       id="text"
       inkscape:label="text"><text
         xml:space="preserve"
         style="font-weight:500;font-size:13px;font-family:Ubuntu;-inkscape-font-specification:'Ubuntu Medium';opacity:1;fill:#808080;fill-opacity:1;stroke-opacity:0.25"
         x="372.24677"
         y="27.828501"
         id="function"
         inkscape:label="function"><tspan
           sodipodi:role="line"
           id="tspan4818"
           x="372.24677"
           y="27.828501"
           style="font-style:normal;font-variant:normal;font-weight:500;font-stretch:normal;font-size:13px;font-family:Ubuntu;-inkscape-font-specification:'Ubuntu Medium';text-align:end;text-anchor:end;fill:#303030;fill-opacity:1">MyTitleIs @linuxmint</tspan></text><text
         xml:space="preserve"
         style="font-style:italic;font-size:13px;font-family:Ubuntu;-inkscape-font-specification:'Ubuntu Italic';fill:none;stroke:#26c08c;stroke-width:0;stroke-dasharray:none"
         x="5.1680002"
         y="27.828501"
         id="text405"
         inkscape:label="name"><tspan
           sodipodi:role="line"
           id="tspan403"
           x="5.1680002"
           y="27.828501"
           style="font-style:normal;font-variant:normal;font-weight:500;font-stretch:normal;font-size:13px;font-family:Ubuntu;-inkscape-font-specification:'Ubuntu Medium';fill:#303030;fill-opacity:1;stroke:none">MyNameIs15Chars</tspan></text></g></g></svg>
